<svg id="Capa_1" data-name="Capa 1" xmlns="http://www.w3.org/2000/svg" viewBox="0 0 1034.69 206.5"><defs><style>.cls-1{fill:#1d1d1b;}.cls-2{fill:#cf731c;}</style></defs><path class="cls-1" d="M79.13,156.8h23.39L86,126.56l1-.62a26.24,26.24,0,0,0,12.94-23C100,85.87,87.44,74,69.49,74H33.75V156.8h21V130.69H65.29ZM54.76,92.35h12c7,0,11.61,4.12,11.61,10.49s-4.67,10.54-11.61,10.54h-12Z"/><polygon class="cls-1" points="172.16 156.8 143.14 114.05 143.34 113.75 169.65 73.96 145.4 73.96 123.53 108.82 123.53 73.96 102.52 73.96 102.52 156.8 123.53 156.8 123.53 120.19 147.3 156.8 172.16 156.8"/><path class="cls-2" d="M72.3,58.91a74.68,74.68,0,0,1,12.54-9.29c1.13-.63,2.22-1.35,3.39-1.91L91.72,46A75.7,75.7,0,0,1,99,43.15,69.65,69.65,0,0,1,114,39.76c20.45-2.41,41.64,4.09,56.74,17.55a73.07,73.07,0,0,1,17.9,24,71.22,71.22,0,0,1,6.62,28.83l.07,1.85c0,.62-.07,1.24-.1,1.85l-.24,3.7-.12,1.85-.25,1.83c-.14,1.22-.38,2.44-.61,3.64a67.19,67.19,0,0,1-4.28,14.06,69.9,69.9,0,0,1-14.8,22l6.62,9.75a80.91,80.91,0,0,0,17.63-28,78,78,0,0,0,4.14-16.22c.19-1.38.39-2.76.49-4.14l.19-2.08,0-2.09.08-4.17c0-.69,0-1.38,0-2.08l-.17-2.07a79.33,79.33,0,0,0-29.5-56.9,77.7,77.7,0,0,0-60.87-16A72.49,72.49,0,0,0,98.2,41.1c-2.5.91-4.88,2.11-7.28,3.25l-3.48,1.93c-1.17.63-2.25,1.41-3.37,2.11a74.68,74.68,0,0,0-12.27,10,80.85,80.85,0,0,0-9.91,12.25A80.72,80.72,0,0,1,72.3,58.91Z"/><path class="cls-2" d="M79.13,156.8h23.39L91.94,137.42q-10.22,2.43-20.17,5.49Z"/><path class="cls-2" d="M123.53,131.58q-10.61,1.42-21,3.51V156.8h21Z"/><path class="cls-2" d="M153.29,129q-11.56.48-22.9,1.75L147.3,156.8h24.86Z"/><path class="cls-2" d="M54.76,156.8v-8.13q-10.09,3.74-19.87,8.13Z"/><path class="cls-1" d="M389.52,144.18c2.77,0,4.5,1.2,4.5,3.15a2.77,2.77,0,0,1-2.18,2.77,3.09,3.09,0,0,1,2.63,3.18c0,2.16-1.82,3.49-4.75,3.49h-6V144.18Zm-2.95,5.07h2.81c1.06,0,1.72-.52,1.72-1.4s-.66-1.35-1.72-1.35h-2.81Zm0,5.2h2.81c1.35,0,2.16-.56,2.16-1.53s-.81-1.47-2.16-1.47h-2.81Z"/><path class="cls-1" d="M410.88,156.77H408v-4l-4.66-8.6h2.86l3.22,5.65,3.15-5.65h2.86l-4.59,8.53Z"/><path class="cls-1" d="M443.45,153.17h-2.9v3.6h-2.84V144.18h5.47c3.29,0,5.16,1.58,5.16,4.37a4.17,4.17,0,0,1-2.36,4.07l2.68,4.15h-3.22Zm-.27-2.37c1.56,0,2.46-.72,2.46-2.16s-.9-2.1-2.46-2.1h-2.63v4.26Z"/><path class="cls-1" d="M461.86,146.54v2.73h6.08v2.36h-6.08v2.79h6.95v2.35H459V144.18h9.59v2.36Z"/><path class="cls-1" d="M481.81,154.33l-1,2.44h-2.94l5.47-12.59h2.94l5.38,12.59h-3l-1-2.44Zm2.93-7.18-2,4.89h4Z"/><path class="cls-1" d="M509.5,154.29v2.48h-8.23V144.18h2.84v10.11Z"/><path class="cls-1" d="M530.6,156.77v-8.49l-3.35,7.21H525.4l-3.35-7.21v8.49h-2.57V144.18h3.19l3.67,7.7,3.65-7.7h3.16v12.59Z"/><path class="cls-1" d="M546.71,154.33l-1,2.44h-2.93l5.47-12.59h2.93l5.38,12.59h-3l-1-2.44Zm2.94-7.18-2,4.89h4Z"/><path class="cls-1" d="M571.91,153.17H569v3.6h-2.84V144.18h5.47c3.29,0,5.16,1.58,5.16,4.37a4.16,4.16,0,0,1-2.35,4.07l2.68,4.15h-3.22Zm-.27-2.37c1.57,0,2.47-.72,2.47-2.16s-.9-2.1-2.47-2.1H569v4.26Z"/><path class="cls-1" d="M592.14,151.65l-1.81,2v3.11h-2.85V144.18h2.85v5.72l5.23-5.72h3.29l-4.73,5.25,5.06,7.34h-3.42Z"/><path class="cls-1" d="M621.65,156.77V144.18h2.84v12.59Z"/><path class="cls-1" d="M644.37,156.77l-6.09-8.08v8.08h-2.72V144.18h2.59l6.12,8.09v-8.09H647v12.59Z"/><path class="cls-1" d="M669.14,156.77v-8.49l-3.34,7.21h-1.86l-3.34-7.21v8.49H658V144.18h3.18l3.67,7.7,3.65-7.7h3.17v12.59Z"/><path class="cls-1" d="M695.4,150.48a6.78,6.78,0,1,1-6.76-6.39A6.47,6.47,0,0,1,695.4,150.48Zm-10.61,0a3.92,3.92,0,0,0,3.88,3.94,3.93,3.93,0,1,0-3.88-3.94Z"/><path class="cls-1" d="M711.35,144.18c2.78,0,4.5,1.2,4.5,3.15a2.76,2.76,0,0,1-2.17,2.77,3.09,3.09,0,0,1,2.62,3.18c0,2.16-1.82,3.49-4.75,3.49h-6V144.18Zm-3,5.07h2.81c1.06,0,1.73-.52,1.73-1.4s-.67-1.35-1.73-1.35H708.4Zm0,5.2h2.81c1.35,0,2.16-.56,2.16-1.53s-.81-1.47-2.16-1.47H708.4Z"/><path class="cls-1" d="M726.66,156.77V144.18h2.84v12.59Z"/><path class="cls-1" d="M748.81,154.29v2.48h-8.24V144.18h2.84v10.11Z"/><path class="cls-1" d="M758.79,156.77V144.18h2.84v12.59Z"/><path class="cls-1" d="M775.18,154.33l-1,2.44h-2.93l5.47-12.59h2.93L785,156.77h-3l-1-2.44Zm2.94-7.18-2,4.89h4Z"/><path class="cls-1" d="M800.38,153.17h-2.9v3.6h-2.84V144.18h5.47c3.29,0,5.16,1.58,5.16,4.37a4.16,4.16,0,0,1-2.35,4.07l2.68,4.15h-3.22Zm-.27-2.37c1.57,0,2.47-.72,2.47-2.16s-.9-2.1-2.47-2.1h-2.63v4.26Z"/><path class="cls-1" d="M816,156.77V144.18h2.84v12.59Z"/><path class="cls-1" d="M832.35,154.33l-1,2.44h-2.93l5.47-12.59h2.93l5.38,12.59h-3l-1-2.44Zm2.93-7.18-2,4.89h4Z"/><path class="cls-1" d="M242,74c12.37,0,19.45,6.11,19.45,16.88,0,11.32-7.08,17.85-19.45,17.85h-9.65v13.88h-11V74Zm-9.65,25.56h9.1c6.11,0,9.58-2.78,9.58-8.33s-3.47-8.13-9.58-8.13h-9.1Z"/><path class="cls-1" d="M274.63,113.13l-3.82,9.44H259.49L280.6,74h11.32l20.76,48.61H301l-3.82-9.44ZM286,85.42l-7.71,18.89h15.35Z"/><path class="cls-1" d="M349.56,113v9.58h-31.8V74h11v39Z"/><path class="cls-1" d="M366,113.13l-3.81,9.44H350.82L371.93,74h11.32L404,122.57H392.27l-3.82-9.44Zm11.32-27.71-7.7,18.89h15.34Z"/><path class="cls-1" d="M443.11,122.57,419.57,91.39v31.18H409.08V74h10l23.61,31.25V74h10.42v48.61Z"/><path class="cls-1" d="M505.41,81.67,499,89.45c-3.33-3.82-8.12-6.32-12.64-6.32a15,15,0,0,0,0,29.93c4.38,0,9.17-2.22,12.64-5.69l6.46,7c-5.14,5.28-12.57,8.68-19.65,8.68-14.52,0-25.49-10.76-25.49-24.86s11.18-24.58,25.9-24.58A27.65,27.65,0,0,1,505.41,81.67Z"/><path class="cls-1" d="M521.11,113.13l-3.82,9.44H506L527.08,74H538.4l20.76,48.61H547.43l-3.82-9.44Zm11.32-27.71-7.71,18.89h15.35Z"/><path class="cls-1" d="M592,83.06V95h21.94v9.16H592v18.4H581V74h34.94l-.07,9.1Z"/><path class="cls-1" d="M671.05,98.27c0,14-11.25,24.79-26.11,24.79s-26.11-10.69-26.11-24.79,11.25-24.65,26.11-24.65S671.05,84.17,671.05,98.27Zm-41,0a15.12,15.12,0,0,0,15,15.21,15.14,15.14,0,1,0-15-15.21Z"/><path class="cls-1" d="M712.3,122.57,688.76,91.39v31.18H678.28V74h10l23.61,31.25V74H722.3v48.61Z"/><path class="cls-1" d="M754,83.27v39.3H743V83.27H728.21V74h40.63v9.31Z"/><path class="cls-1" d="M785.72,83.06V93.62h23.47v9.09H785.72v10.77h26.8v9.09H774.74V74h37v9.1Z"/><path class="cls-1" d="M857.39,78.76l-4.24,9.09c-5.14-3-11.25-5-15.14-5-3.68,0-6.18,1.32-6.18,4,0,9,25.9,4,25.84,21.46,0,9.51-8.27,14.65-19,14.65a34.1,34.1,0,0,1-21.46-7.71l4.38-8.95c5,4.44,12.08,7.29,17.22,7.29,4.51,0,7.22-1.67,7.22-4.66,0-9.16-25.9-3.82-25.9-21,0-8.82,7.57-14.37,18.82-14.37A34.7,34.7,0,0,1,857.39,78.76Z"/><path class="cls-1" d="M886.35,83.27v39.3h-11V83.27H860.59V74h40.62v9.31Z"/><path class="cls-1" d="M911.63,113.13l-3.82,9.44H896.49L917.6,74h11.32l20.77,48.61H938l-3.82-9.44ZM923,85.42l-7.71,18.89h15.35Z"/><path class="cls-1" d="M975.39,74c15.07,0,25.55,9.93,25.55,24.31s-10.62,24.3-26,24.3H954.76V74Zm-9.66,39.38h9.94c8.12,0,14.09-6.11,14.09-15S983.51,83.2,975.18,83.2h-9.45Z"/></svg>